<svg width="338" height="138" viewBox="0 0 338 138" fill="none" xmlns="http://www.w3.org/2000/svg">
<g opacity="0.4" clip-path="url(#clip0_13_4279)">
<path d="M286.287 104.84C286.324 104.226 286.264 103.602 286.037 103.029C285.511 101.667 284.236 100.623 282.794 100.364C281.187 100.078 279.552 100.72 278.134 101.551C277.159 102.119 276.226 102.798 275.15 103.131C274.059 103.459 273.422 103.958 272.627 103.145C264.678 101.246 256.691 99.3431 249.097 96.3221C241.502 93.301 233.821 90.183 228.984 83.5958C226.582 80.3392 224.619 76.7685 223.131 73.0084C224.115 72.5557 225.118 72.1353 226.134 71.7565C229.187 70.6109 232.361 69.7887 235.617 69.2159C240.528 68.3475 245.586 68.038 250.561 68.0056C261.735 67.9317 272.978 69.0958 284.056 67.6361C292.703 66.4997 302.431 66.1256 309.568 61.109C312.474 59.0673 315.393 57.0117 317.938 54.5357C320.493 52.0598 322.668 49.1173 323.8 45.7498C324.026 45.0523 324.216 44.3317 324.197 43.6018C322.844 43.7358 321.906 43.7219 321.32 44.6504C324.997 36.7236 324.331 27.4203 322.507 18.8423C322.368 18.1956 322.211 17.5165 321.749 17.0407C321.287 16.5603 320.405 15.5441 319.952 16.0291C319.865 13.9597 319.361 11.9179 318.493 10.0471C318.317 9.68679 318.128 9.31262 317.786 9.10014C317.292 8.79526 316.608 8.93384 316.137 9.28953C315.666 9.64522 315 10.4675 314.705 10.9756C314.053 8.86455 313.397 6.72581 312.289 4.81803C311.189 2.90102 309.591 1.19187 307.54 0.365011C306.847 0.087852 306.085 -0.0830626 305.355 0.0739941C304.787 0.189477 304.279 0.50359 303.789 0.817704C302.45 1.68152 301.11 2.60076 300.071 3.81564C299.031 5.03052 298.237 6.83205 298.269 8.42572C297.595 7.10459 296.398 6.04215 295.003 5.52941C294.976 7.65429 294.634 8.37952 295.641 10.2457C298.066 14.7911 300.048 19.5675 301.544 24.4917C302.182 26.5796 302.736 28.7322 302.699 30.9172C302.611 35.3979 299.918 39.6107 296.181 42.0728C292.435 44.5441 288.582 44.6735 284.106 44.9784C272.53 45.759 260.673 45.334 249.263 46.9185C245.512 47.4358 241.812 48.1749 238.181 49.2374C236.971 49.5931 235.765 49.9857 234.573 50.4153C229.926 52.1013 225.515 54.3971 221.45 57.2057C222.766 54.0461 225.395 51.5378 228.009 49.2605C235.599 42.6271 243.771 36.6682 252.386 31.4576C253.961 32.7233 256.007 33.8181 258.03 33.8042C259.167 33.7904 260.345 33.5502 261.241 32.8388C262.52 31.8225 262.982 29.9517 262.465 28.395C261.952 26.8383 260.788 25.0414 259.213 24.5564C259.74 23.845 260.691 23.6556 261.472 23.2583C262.876 22.5423 263.768 21.0411 263.92 19.4705C263.971 18.9439 263.938 18.4127 263.823 17.9046C263.786 17.7336 263.744 17.5673 263.684 17.4103C263.047 15.5903 261.416 14.186 259.545 13.6917C257.513 13.1559 255.213 13.41 253.453 14.5602C253.988 12.6247 254.441 10.2688 253.028 8.83683C251.591 7.36327 249.124 7.81597 247.253 8.6382C244.26 9.95009 241.271 11.9133 239.147 14.3893C239.147 14.3893 202.848 25.5218 174.781 34.474C164.776 37.666 151.102 41.172 137.66 44.3548C136.113 43.4909 134.579 42.6133 133.073 41.6986C130.874 40.3729 128.87 38.8439 127.331 36.8253C127.156 36.5897 126.985 36.3541 126.823 36.1047C130.934 35.6012 135.147 35.0699 138.843 33.1899C142.538 31.3098 145.67 27.7806 145.906 23.6325C145.98 22.182 145.675 20.6669 144.82 19.4936C143.836 18.1309 142.908 17.6413 141.383 16.9299C142.224 16.7774 143 16.3432 143.568 15.7196C143.698 15.581 143.813 15.4332 143.845 15.2531C143.896 14.865 143.554 14.6064 143.162 14.4493C143.032 14.3985 142.899 14.3615 142.769 14.3338C141.711 14.0936 141.776 14.2368 140.714 13.9874C128.131 11.0633 114.67 11.9503 102.563 16.4957C99.5786 17.6228 96.6499 18.967 93.5365 19.6876C91.1853 20.2373 89.1066 20.8517 87.2034 22.3391C82.9306 25.6881 79.6555 30.9726 80.4777 36.3356C80.9581 39.4583 82.7412 42.2021 84.5751 44.7705C86.9817 48.1518 89.6147 51.4454 92.6496 54.2493C90.8573 54.6096 89.8595 54.8129 89.8595 54.8129C86.3812 55.455 82.9814 56.4897 79.5215 57.238C78.4822 57.4644 77.392 57.1918 76.5698 56.5128C74.6066 54.9053 72.6341 53.2931 70.6709 51.681C70.4815 51.5285 70.3014 51.3623 70.112 51.1913C71.2391 47.7823 72.4771 44.4148 73.8675 41.1212C74.0476 40.6824 73.3409 40.4145 73.1053 40.8025C71.3638 43.7635 69.9965 46.8723 69.0357 50.1289C68.5275 49.6254 68.0194 49.1219 67.4836 48.6784C67.7007 47.5975 67.9086 46.5258 68.121 45.4495C68.2642 45.2278 68.3751 44.9784 68.2642 44.7197C68.4629 43.7727 68.6523 42.8211 68.8555 41.8788C69.8718 37.3657 71.0127 32.8711 72.1168 28.3858C72.2738 27.7252 71.3269 27.4712 71.1005 28.104C69.5715 32.5801 68.3613 37.0978 67.3081 41.7125C67.1094 42.5948 66.9015 43.4817 66.7122 44.3732C65.6636 44.4656 64.675 44.4702 63.6588 44.5164C63.8528 41.7356 64.0976 38.9548 64.1623 36.1693C64.1715 35.8321 63.7743 35.6843 63.5294 35.8229C63.4509 35.8691 63.3862 35.9476 63.3632 36.0631C62.9659 37.8923 62.7211 39.7493 62.5409 41.6155C52.7202 45.8468 43.3338 50.346 36.7513 58.804C36.0815 59.6678 35.4671 60.5639 34.9035 61.4832C31.5638 61.6772 28.2286 62.0744 24.9212 62.4717L16.5371 63.4833C15.3592 63.6265 14.0751 63.8252 13.3036 64.7213C13.0126 65.0585 12.8371 65.5897 12.8001 66.1302C12.7355 67.031 13.0403 67.9502 13.7748 68.001C18.4034 72.431 23.2767 76.6022 28.3534 80.5194C27.0369 87.1019 26.0945 93.7629 23.5354 99.9621C20.3989 101.939 17.4148 104.147 14.5924 106.554C13.6547 107.348 12.7355 108.175 11.8439 109.016C11.6083 109.238 11.3866 109.469 11.1649 109.704C10.7769 110.115 10.4166 110.554 10.1902 111.072C10.0701 111.349 10.047 111.658 10.0655 111.968C3.55687 113.963 0 116.12 0 118.365C0 128.74 75.6644 137.152 168.998 137.152C262.331 137.152 338 128.74 338 118.365C338 113.053 318.151 108.263 286.287 104.845V104.84Z" fill="#4A3AFA" fill-opacity="0.24"/>
<path d="M49.3436 23.9927C49.3436 23.9927 67.5715 19.997 66.3243 13.2852C65.0863 6.56867 54.2863 11.8763 54.2863 11.8763C54.2863 11.8763 47.9301 -4.75327 45.6713 7.56182C43.4124 19.8769 49.3436 23.9973 49.3436 23.9973V23.9927Z" fill="#4A3AFA" fill-opacity="0.24"/>
<path d="M11.7608 56.9284C12.0333 56.9284 12.3151 56.8499 12.5599 56.679C13.0126 56.3649 16.8559 53.6395 17.461 50.0734C18.6251 50.5676 19.8538 50.8079 21.004 50.5538C23.383 50.0226 25.2353 48.3504 25.9144 46.1839C27.6651 46.8814 29.6329 47.3341 31.7439 47.348C36.9268 47.4311 39.606 45.1122 40.9502 43.2091C41.7448 42.082 42.2621 40.8209 42.5485 39.5321C46.2347 37.1162 47.8838 30.0856 48.0686 29.2541C48.2349 28.4919 47.7545 27.739 46.9969 27.5727C46.207 27.411 45.4818 27.8868 45.3155 28.6444C45.0291 29.9424 44.1052 33.0512 42.7425 35.2315C42.6317 34.3492 42.433 33.5178 42.1697 32.7879C41.5831 31.1711 40.3543 30.2796 38.8854 30.4136C36.9776 30.5799 35.116 32.5154 34.7373 34.7234C34.3585 36.913 35.4856 38.8392 37.7491 39.8786C38.2757 40.1234 38.8115 40.2758 39.3427 40.3312C39.1533 40.7701 38.9224 41.1904 38.6498 41.5785C37.2548 43.5509 34.9544 44.5163 31.7624 44.5256C29.6052 44.5117 27.6651 43.9343 26.0529 43.1536C25.6557 41.3152 24.3808 39.606 22.3991 38.3449C21.7154 37.9107 20.1125 36.8899 18.9438 37.8091C18.7129 37.9893 18.0015 38.6729 18.4403 39.9432C18.9022 41.2782 20.6853 43.3015 23.3229 44.8951C23.3229 44.909 23.3183 44.9228 23.3137 44.9413C23.0689 46.3364 21.9187 47.4589 20.3897 47.7961C19.415 48.0178 18.0338 47.3341 16.8189 46.4888C16.5233 45.9668 16.1076 45.431 15.5486 44.909C14.2645 43.6987 13.2482 42.7471 12.1534 43.5232C11.6083 43.9112 11.419 44.7335 11.6915 45.3478C11.8947 45.8051 13.0265 47.1216 14.5786 48.3319C14.694 48.6553 14.7402 48.9925 14.7125 49.3343C14.5555 51.4361 11.9548 53.6718 10.9663 54.3509C10.3242 54.7943 10.1625 55.672 10.606 56.3141C10.8785 56.7113 11.3219 56.9238 11.77 56.9238L11.7608 56.9284ZM38.9224 37.3148C37.8183 36.8113 37.361 36.1184 37.5181 35.2084C37.7029 34.146 38.6221 33.2729 39.1302 33.2267H39.1395C39.3104 33.2267 39.4674 33.624 39.5136 33.7441C39.8924 34.7927 40.0957 36.1461 39.9987 37.5412C39.6337 37.5597 39.3104 37.4904 38.927 37.3102L38.9224 37.3148Z" fill="#4A3AFA" fill-opacity="0.24"/>
<path d="M321.892 66.4442C321.181 66.7676 320.867 67.6037 321.19 68.3104C321.426 68.8324 321.939 69.1373 322.474 69.1373C322.668 69.1373 322.867 69.0957 323.056 69.0126C340.919 60.9195 331.297 28.686 330.882 27.3186C330.651 26.5749 329.875 26.1453 329.117 26.3809C328.373 26.6119 327.953 27.3972 328.179 28.1455C328.276 28.455 337.515 59.3628 321.892 66.4442Z" fill="#4A3AFA" fill-opacity="0.24"/>
<path d="M134.741 5.89887C135.277 5.91273 147.888 6.3839 149.209 20.4959C149.278 21.2304 149.892 21.7755 150.613 21.7755C150.659 21.7755 150.701 21.7755 150.747 21.7708C151.523 21.6969 152.091 21.0087 152.022 20.2326C150.47 3.65388 134.972 3.08109 134.815 3.07647H134.778C134.016 3.07647 133.388 3.68622 133.369 4.45303C133.351 5.22907 133.965 5.88039 134.746 5.89887H134.741Z" fill="#4A3AFA" fill-opacity="0.24"/>
<path d="M321.329 44.6411C325.006 36.7143 324.341 27.411 322.516 18.833C322.378 18.1863 322.22 17.5072 321.759 17.0314C321.297 16.551 320.414 15.5348 319.962 16.0198C319.874 13.9503 319.37 11.9086 318.502 10.0378C318.326 9.67747 318.137 9.30331 317.795 9.09082C317.301 8.78595 316.617 8.92453 316.146 9.28021C315.675 9.6359 315.01 10.4581 314.714 10.9663C314.063 8.85524 313.407 6.71649 312.298 4.80872C311.199 2.8917 309.6 1.18255 307.55 0.355695C306.857 0.0785365 306.094 -0.0923781 305.365 0.0646786C304.796 0.180162 304.288 0.494275 303.799 0.808388C302.459 1.6722 301.119 2.59144 300.08 3.80632C299.041 5.0212 298.246 6.82274 298.279 8.4164C297.604 7.09528 296.408 6.03283 295.013 5.52009C294.985 7.64498 294.643 8.37021 295.65 10.2364C298.075 14.7818 300.057 19.5582 301.554 24.4824C302.191 26.5703 302.745 28.7229 302.708 30.9079C302.621 35.3886 299.928 39.6014 296.191 42.0635C292.444 44.5348 288.592 44.6642 284.116 44.969C272.54 45.7497 260.682 45.3247 249.272 46.9092C244.274 47.6021 239.359 48.6784 234.583 50.4106C229.936 52.0966 225.524 54.3924 221.459 57.201C222.776 54.0414 225.404 51.5331 228.019 49.2558C235.608 42.6224 243.78 36.6635 252.395 31.4529C253.97 32.7186 256.016 33.8134 258.04 33.7995C259.176 33.7857 260.354 33.5455 261.25 32.8341C262.53 31.8179 262.987 29.947 262.474 28.3903C261.962 26.8336 260.797 25.0367 259.222 24.5517C259.749 23.8403 260.7 23.6509 261.481 23.2536C263.357 22.3021 264.313 19.9462 263.832 17.8999C263.795 17.7289 263.754 17.5626 263.694 17.4056C263.056 15.5856 261.426 14.1813 259.555 13.687C257.522 13.1512 255.222 13.4053 253.462 14.5555C253.998 12.62 254.451 10.2641 253.037 8.83214C251.6 7.35858 249.134 7.81127 247.263 8.63351C244.27 9.94539 241.281 11.9086 239.156 14.3846C239.156 14.3846 202.857 25.5171 174.79 34.4693C164.785 37.6613 151.112 41.1674 137.67 44.3501C136.122 43.4862 134.589 42.6086 133.083 41.694C130.884 40.3682 128.879 38.8392 127.341 36.8206C127.165 36.585 126.994 36.3494 126.833 36.1C130.944 35.5965 135.157 35.0652 138.852 33.1852C142.548 31.3051 145.68 27.776 145.915 23.6278C145.989 22.1773 145.684 20.6622 144.83 19.4889C143.846 18.1262 142.917 17.6366 141.393 16.9252C142.233 16.7727 143.01 16.3385 143.578 15.7149C143.707 15.5763 143.823 15.4285 143.855 15.2484C143.924 14.731 143.291 14.44 142.779 14.3291C141.721 14.0889 141.785 14.2321 140.723 13.9827C128.14 11.0587 114.679 11.9456 102.572 16.491C99.588 17.6181 96.6593 18.9623 93.5459 19.6829C91.1947 20.2326 89.116 20.847 87.2128 22.3344C82.94 25.6834 79.6649 30.9679 80.4871 36.3309C80.9675 39.4536 82.7506 42.1975 84.5844 44.7658C86.9911 48.1471 89.6241 51.4407 92.659 54.2446C90.8667 54.6049 89.8689 54.8082 89.8689 54.8082C86.3906 55.4503 82.9908 56.485 79.5309 57.2333C78.4916 57.4597 77.4014 57.1871 76.5792 56.5081C74.616 54.9006 72.6435 53.2884 70.6803 51.6763C70.4909 51.5239 70.3107 51.3576 70.1214 51.1866C71.2485 47.7776 72.4818 44.4101 73.8769 41.1165C74.057 40.6777 73.3503 40.4098 73.1147 40.7978C71.3732 43.7588 70.0059 46.8676 69.0451 50.1242C68.5369 49.6207 68.0288 49.1172 67.493 48.6737C67.7101 47.5928 67.9179 46.5211 68.1304 45.4448C68.2736 45.2231 68.3845 44.9737 68.2736 44.715C68.4723 43.768 68.6616 42.8164 68.8649 41.8741C69.8811 37.361 71.0221 32.8664 72.1261 28.3811C72.2832 27.7205 71.3362 27.4665 71.1099 28.0993C69.5809 32.5754 68.3706 37.0931 67.3174 41.7078C67.1188 42.5901 66.9109 43.477 66.7215 44.3685C65.673 44.4609 64.6844 44.4655 63.6682 44.5117C63.8622 41.7309 64.107 38.9501 64.1717 36.16C64.1809 35.7073 63.4742 35.6011 63.3725 36.0538C62.9753 37.883 62.7304 39.74 62.5503 41.6062C52.7296 45.8375 43.3432 50.3367 36.7607 58.7947C36.0909 59.6585 35.4765 60.5546 34.9129 61.4739C31.5732 61.6679 28.238 62.0651 24.9306 62.4624L16.5465 63.474C15.3732 63.6172 14.0844 63.8205 13.313 64.712C12.537 65.6081 12.6016 67.9086 13.7842 67.9963C18.4127 72.4263 23.2861 76.5975 28.3627 80.5147C27.0462 87.0972 26.1039 93.7583 23.5448 99.9574C20.4083 101.934 17.4242 104.142 14.6018 106.549C13.6641 107.344 12.7448 108.171 11.8533 109.011C11.202 109.616 10.5507 110.254 10.2042 111.067C9.85314 111.875 10.1442 112.942 10.7308 113.594C20.4175 116.495 39.0426 110.448 70.9944 114.319C79.2029 115.312 89.4901 115.926 100.535 116.31C102.05 116.361 103.602 116.407 105.154 116.453C105.667 116.467 106.184 116.481 106.716 116.49C107.348 116.513 107.977 116.531 108.619 116.545C108.933 116.555 109.242 116.559 109.561 116.564C111.159 116.605 112.771 116.642 114.384 116.675C114.624 116.675 114.85 116.684 115.095 116.684C117.141 116.725 119.197 116.758 121.253 116.79C131.373 116.933 141.471 116.975 150.627 117.021C165.085 117.095 177.206 117.183 183.438 117.705C200.788 119.155 276.244 124.883 276.244 124.883C277.718 125.895 279.33 126.763 281.076 127.096C282.822 127.424 284.753 127.161 286.171 126.075C287.589 124.994 288.366 123.017 287.765 121.331C287.589 120.832 287.451 120.352 287.303 119.862C287.165 119.345 287.017 118.827 286.846 118.296C288.938 118.111 291.059 117.289 292.394 115.668C293.733 114.046 294.08 111.538 292.874 109.815C292.2 108.84 291.137 108.212 290.019 107.801C288.541 107.256 286.994 106.752 285.474 107.182C286.361 106.013 286.587 104.383 286.051 103.025C285.525 101.662 284.25 100.618 282.808 100.359C281.201 100.073 279.566 100.715 278.148 101.546C277.173 102.115 276.24 102.794 275.164 103.126C274.073 103.454 273.436 103.953 272.641 103.14C264.692 101.242 256.705 99.3384 249.111 96.3174C241.516 93.2963 233.835 90.1783 228.998 83.5911C226.596 80.3345 224.633 76.7638 223.145 73.0037C227.086 71.1837 231.294 69.9688 235.631 69.2066C240.542 68.3382 245.6 68.0333 250.575 68.001C261.749 67.927 272.992 69.0911 284.07 67.6314C292.717 66.4951 302.445 66.1209 309.582 61.1043C312.488 59.0626 315.407 57.007 317.952 54.531C320.507 52.0551 322.682 49.1126 323.814 45.7451C324.04 45.0476 324.23 44.327 324.211 43.5971C322.858 43.7311 321.92 43.7172 321.334 44.6457" fill="#9A9EB3"/>
<path d="M287.751 121.336C287.575 120.837 287.437 120.356 287.289 119.867C279.173 120.019 271.085 117.192 263.209 114.808C244.394 109.099 225.885 97.5923 206.724 102.004C187.609 106.411 167.584 110.804 148.626 105.824C145.855 105.099 143.157 103.32 140.409 102.267C140.304 102.267 140.304 102.267 140.409 102.267H140.413C142.862 102.272 145.305 102.068 147.638 101.38C149.01 100.974 150.345 100.364 151.555 99.574C153.856 98.0727 155.68 95.9155 156.318 93.2732C156.655 91.8597 156.632 90.3169 156.008 89.0003C155.292 87.4806 154.465 86.8293 153.103 85.85C153.953 85.8592 154.793 85.5728 155.472 85.0601C155.62 84.9492 155.759 84.8245 155.823 84.649C155.985 84.1639 155.417 83.7574 154.936 83.5496C153.948 83.12 153.976 83.2724 152.973 82.8382C141.129 77.6692 127.738 76.0847 115.012 78.3575C111.866 78.9164 108.748 79.7063 105.551 79.8495C103.135 79.9604 100.978 80.1867 98.8441 81.3046C98.0866 81.6926 97.3521 82.1453 96.6453 82.6349C92.8205 85.2818 89.8134 89.259 89.684 93.8368C89.587 96.9918 90.8389 100.017 92.1738 102.881C92.645 103.879 93.1254 104.872 93.6197 105.856C93.0423 106.309 92.4002 106.692 91.7165 106.96C89.4207 107.847 86.8154 107.658 84.5058 106.812C83.254 106.355 82.0483 105.69 81.1568 104.683C80.159 103.537 79.637 102.027 79.4661 100.512C78.824 94.9408 82.3948 89.8965 84.6721 84.7737C87.1665 79.1474 88.1135 72.3939 85.2772 66.9339C84.6675 65.7744 83.6558 64.5596 82.3486 64.6473C80.9766 64.7397 80.159 66.1625 79.48 67.3635C78.8102 68.5645 77.6553 69.8718 76.3204 69.5207C75.6459 69.3359 75.1609 68.7631 74.6482 68.2735C74.0477 67.6868 73.3455 67.2018 72.5926 66.823C72.8836 67.0032 73.17 67.1926 73.4425 67.3958C73.17 67.1879 72.8836 67.0032 72.5926 66.823C72.0244 66.472 71.4285 66.1578 70.8003 65.8945C72.4217 65.622 74.0153 64.9984 74.893 64.056C75.221 63.6957 75.0223 62.9105 74.4449 62.9844C73.2254 63.1368 72.0798 63.7188 70.8834 64.0052C69.8348 64.2547 68.7724 64.2593 67.7192 64.3794C67.7608 64.4302 67.8162 64.4672 67.8578 64.518C68.5368 65.1693 69.2436 66.0516 68.9756 66.957C68.971 66.9893 68.9525 67.0216 68.9341 67.0494C68.9525 67.017 68.971 66.9893 68.9756 66.957C69.2389 66.0516 68.5368 65.1693 67.8578 64.518C67.8162 64.4718 67.7608 64.4302 67.7192 64.3794C65.5897 62.3931 63.22 60.9334 60.6101 59.7601C59.7555 59.3767 58.7854 59.931 58.6561 60.8549C58.0972 64.8921 58.2865 69.0264 59.2012 72.999C59.409 73.8582 60.3421 74.3017 61.1413 73.9414C63.8944 72.708 66.4304 70.1304 68.3428 67.9455C68.5045 67.7607 68.6661 67.5667 68.7909 67.3589C69.4653 67.5436 70.1582 67.7145 70.7356 67.9871C71.0774 68.1441 71.4146 68.3382 71.7426 68.5229C71.9643 68.6523 71.9643 68.6523 71.7426 68.5229C72.648 69.5299 73.4148 70.6293 73.8721 71.9043C74.5142 73.7012 74.4772 75.6875 74.08 77.5537C73.752 79.0873 73.1515 80.6394 72.1999 81.8635C71.872 80.4962 71.5116 79.1289 71.1282 77.78C70.9619 77.2257 70.1905 77.4705 70.2783 78.011C70.5416 79.637 70.8649 81.2676 71.1929 82.8936C70.8465 83.1893 70.4723 83.4618 70.0473 83.6743C69.6362 83.8775 69.1974 84.0161 68.7401 84.09C68.7909 82.0852 68.8047 80.0805 68.6153 78.0941C68.583 77.72 67.9825 77.5629 67.8993 77.9971C67.5298 80.0065 67.4005 82.0575 67.3312 84.1224C67.3281 84.2055 67.3281 84.2055 67.3312 84.1224C66.2595 84.0023 65.234 83.5449 64.5411 82.8058C64.9522 80.7872 65.3171 78.764 65.5342 76.7268C65.6082 75.9924 64.5134 75.9231 64.2963 76.5605C63.7697 78.1588 63.3493 79.8125 62.9982 81.4801C61.4739 81.7018 60.356 83.18 59.9264 84.7922C59.4368 86.663 59.4183 88.737 58.3004 90.3215C57.1733 91.929 55.15 92.6589 53.8058 94.1001C52.4801 95.509 51.9396 97.4583 51.3345 99.2968C49.9117 103.588 47.5836 107.995 43.4632 109.857C38.7053 112 33.5686 112.379 28.5012 111.57C25.5633 111.769 22.6347 111.94 19.6922 112.051C19.3134 111.801 17.2624 110.462 17.5072 110.088C17.7613 109.709 18.2001 109.501 18.602 109.302C18.893 109.168 19.184 109.039 19.4658 108.9C18.3757 108.434 17.2947 107.921 16.2462 107.367C15.7057 107.085 15.1606 106.78 14.5971 106.531C13.6547 107.325 12.7401 108.147 11.8486 108.993C11.1972 109.598 10.5459 110.235 10.1949 111.048C9.84841 111.857 10.1394 112.924 10.7261 113.575C20.4128 116.476 39.0379 110.429 70.9897 114.3C79.1982 115.293 89.4854 115.908 100.526 116.291C102.045 116.342 103.593 116.388 105.145 116.434C105.658 116.448 106.175 116.462 106.706 116.471C107.339 116.495 107.967 116.508 108.609 116.522C108.923 116.527 109.228 116.541 109.552 116.545C111.15 116.587 112.762 116.624 114.374 116.652C114.614 116.656 114.841 116.665 115.076 116.665C117.127 116.707 119.183 116.739 121.239 116.772C131.359 116.915 141.457 116.956 150.604 117.003C165.071 117.077 177.192 117.169 183.424 117.686C200.774 119.137 276.23 124.865 276.23 124.865C277.704 125.876 279.312 126.745 281.062 127.077C282.808 127.405 284.739 127.142 286.157 126.057C287.575 124.976 288.352 122.999 287.751 121.312V121.336Z" fill="#515466"/>
<path d="M30.8433 70.5369C26.9861 70.4492 22.3807 68.3104 18.9393 67.0401C18.6437 66.9339 18.288 66.6429 18.4681 66.3888C23.2676 65.488 28.1456 65.0122 33.0375 64.9199C33.5918 63.7419 34.2108 62.5825 34.9037 61.4739C31.5639 61.6679 28.2287 62.0651 24.9213 62.4624L16.5373 63.474C15.3593 63.6172 14.0752 63.8158 13.3037 64.712C12.5277 65.6081 12.5924 67.9132 13.7749 67.9963C18.4035 72.4262 23.2768 76.5975 28.3535 80.5147C28.4689 79.965 28.5706 79.4107 28.6907 78.861C29.2819 76.0663 29.9702 73.2623 30.8479 70.5369" fill="#515466"/>
<path d="M18.9394 67.0447C22.3807 68.3104 26.9816 70.4492 30.8433 70.5369C31.4623 68.6153 32.1783 66.7353 33.0375 64.9245C28.1456 65.0169 23.2723 65.4927 18.4682 66.3934C18.2926 66.6475 18.6437 66.9385 18.9394 67.0447Z" fill="#252833"/>
<path d="M106.706 116.495C107.339 116.518 107.967 116.536 108.609 116.55C108.609 116.55 108.609 116.55 108.605 116.55C107.972 116.531 107.339 116.522 106.706 116.499" fill="#515466"/>
<path d="M105.547 79.8587C108.743 79.7155 111.866 78.9256 115.007 78.3667C127.733 76.094 141.125 77.6784 152.969 82.8474C153.971 83.277 153.943 83.1292 154.932 83.5588C155.412 83.7667 155.981 84.1685 155.819 84.6582C155.754 84.8291 155.616 84.9585 155.468 85.0693C154.793 85.5821 153.948 85.8685 153.098 85.8592C154.461 86.8385 155.283 87.4898 156.004 89.0096C156.632 90.3215 156.65 91.8643 156.313 93.2825C155.671 95.9247 153.846 98.0773 151.546 99.5832C160.018 98.7841 168.443 97.4445 176.777 95.7353C185.618 93.9153 194.663 91.5548 201.809 86.0301C203.56 84.6721 205.222 83.0599 205.98 80.9766C207.583 76.5236 204.613 71.9043 202.871 67.5021C201.601 64.2916 200.987 60.8549 199.809 57.6075C198.635 54.3601 196.76 51.1728 193.753 49.4729C191.697 48.3088 189.29 47.9393 186.939 47.736C174.352 46.632 161.815 49.5144 149.273 51.0758C137.79 52.5031 125.789 52.9327 115.543 58.3004C110.961 60.7024 106.9 64.0191 103.38 67.8069C99.939 71.507 96.9088 77.1888 96.6362 82.6534C97.3476 82.1638 98.0775 81.7111 98.835 81.3184C100.969 80.1959 103.126 79.9742 105.542 79.8633" fill="#BABDCC"/>
<path d="M67.8532 64.5272C67.8116 64.481 67.7562 64.4395 67.7146 64.3886C65.5851 62.4023 63.2154 60.9426 60.6054 59.7693C59.7509 59.3859 58.7808 59.9402 58.6515 60.8641C58.0925 64.9014 58.2819 69.0357 59.1966 73.0083C59.4044 73.8675 60.3375 74.3109 61.1367 73.9506C63.8898 72.7173 66.4258 70.1397 68.3382 67.9548C68.4999 67.77 68.6615 67.576 68.7863 67.3681C68.8694 67.2434 68.9341 67.1094 68.9757 66.9662C69.239 66.0608 68.5368 65.1785 67.8578 64.5272" fill="#252833"/>
<path d="M17.5027 110.106C17.2579 110.48 19.3042 111.82 19.6876 112.069C22.6301 111.954 25.5588 111.787 28.4967 111.589C30.3952 111.455 32.2799 111.326 34.1784 111.159C33.1576 110.836 32.2383 110.194 31.5777 109.348C33.176 109.011 34.7697 108.674 36.3634 108.341C34.4648 107.27 32.691 105.223 32.363 103.071C28.0209 104.937 23.7203 106.891 19.4613 108.919C19.1795 109.057 18.8885 109.187 18.5975 109.321C18.1956 109.519 17.7568 109.727 17.5027 110.106Z" fill="#252833"/>
<path d="M254.501 21.138C253.656 21.66 253.046 22.4915 252.404 23.2675C248.071 28.4873 241.553 31.2682 235.479 34.2799C229.381 37.2917 223.131 41.0842 220.3 47.2556C218.244 51.7317 218.304 56.9423 219.473 61.7279C220.041 64.0283 220.826 66.6475 221.829 69.1927C221.695 68.7816 221.584 68.3659 221.468 67.9501C220.632 64.8275 220.12 61.497 221.025 58.3928C221.15 57.9817 221.298 57.5844 221.455 57.1964C222.771 54.0368 225.399 51.5285 228.014 49.2512C235.604 42.6178 243.775 36.6589 252.39 31.4483C253.965 32.714 256.012 33.8088 258.035 33.7949C259.171 33.7811 260.349 33.5409 261.245 32.8295C262.525 31.8132 262.987 29.9424 262.469 28.3857C261.957 26.829 260.793 25.0321 259.217 24.547C259.744 23.8357 260.696 23.6463 261.476 23.2444C263.352 22.2974 264.308 19.937 263.828 17.8906C263.791 17.7197 263.735 17.558 263.689 17.3963C263.324 18.0477 262.936 18.6851 262.419 19.1517C260.354 20.9948 256.852 19.6737 254.492 21.1288" fill="#515466"/>
<path d="M321.329 44.6411C325.006 36.7143 324.341 27.411 322.516 18.833C322.377 18.1863 322.22 17.5072 321.758 17.0314C321.296 16.551 320.414 15.5348 319.961 16.0198C319.874 13.9503 319.37 11.9086 318.502 10.0378C318.326 9.67747 318.137 9.30331 317.795 9.09082C317.301 8.78595 316.617 8.92453 316.146 9.28021C315.675 9.6359 315.01 10.4581 314.714 10.9663C314.063 8.85524 313.407 6.71649 312.298 4.80872C311.199 2.8917 309.6 1.18255 307.549 0.355695C306.856 0.0785365 306.094 -0.0923781 305.364 0.0646786C304.796 0.180161 304.288 0.494275 303.798 0.808388C302.459 1.6722 301.119 2.59144 300.08 3.80632C299.041 5.0212 298.246 6.82274 298.278 8.4164C297.604 7.09528 296.408 6.03283 295.013 5.52009C294.985 7.64497 294.643 8.37021 295.65 10.2364C298.075 14.7818 300.057 19.5582 301.553 24.4824C302.191 26.5703 302.745 28.7229 302.708 30.9078C302.621 35.3886 299.927 39.6014 296.19 42.0635C292.444 44.5348 288.592 44.6642 284.116 44.969C272.54 45.7497 260.682 45.3247 249.272 46.9092C244.274 47.6021 239.359 48.6784 234.583 50.4106C229.936 52.0966 225.524 54.3924 221.459 57.201C221.302 57.589 221.154 57.9863 221.03 58.3974C220.124 61.5016 220.637 64.8367 221.473 67.9594C221.588 68.3705 221.699 68.7862 221.833 69.1973C222.217 70.4861 222.66 71.7564 223.145 73.0083C227.085 71.1883 231.294 69.9734 235.631 69.2112C240.542 68.3428 245.6 68.0379 250.575 68.0056C261.749 67.9317 272.992 69.0957 284.069 67.636C292.717 66.4997 302.445 66.1255 309.582 61.1089C312.487 59.0672 315.407 57.0116 317.952 54.5356C320.507 52.0597 322.682 49.1172 323.814 45.7497C324.04 45.0522 324.23 44.3316 324.211 43.6017C322.858 43.7357 321.92 43.7218 321.333 44.6503" fill="#696C80"/>
<path d="M92.6496 54.24C94.8669 53.7873 98.3082 53.0759 102.609 52.1659C111.69 50.2443 124.574 47.445 137.665 44.3454C136.117 43.4816 134.584 42.6039 133.078 41.6893C130.879 40.3636 128.874 38.8346 127.336 36.8159C127.16 36.5804 126.99 36.3448 126.828 36.0953C130.939 35.5918 135.152 35.056 138.847 33.1805C142.543 31.3005 145.675 27.7713 145.91 23.6232C145.984 22.1727 145.679 20.6576 144.825 19.4843C143.841 18.1216 142.912 17.6319 141.388 16.9206C142.229 16.7681 143.005 16.3339 143.573 15.7103C143.702 15.5717 143.818 15.4239 143.85 15.2391C143.919 14.7264 143.287 14.4354 142.774 14.3245C141.716 14.0843 141.781 14.2275 140.718 13.978C128.135 11.054 114.674 11.9409 102.567 16.4863C99.5832 17.6135 96.6545 18.9577 93.5411 19.6783C91.1899 20.228 89.1112 20.8424 87.208 22.3298C82.9352 25.6788 79.6601 30.9633 80.4823 36.3263C80.9627 39.4443 82.7458 42.1928 84.5796 44.7612C86.9863 48.1425 89.6193 51.4315 92.6542 54.24" fill="#696C80"/>
<path d="M153.107 85.8546C153.957 85.8638 154.798 85.5774 155.477 85.0647C155.625 84.9538 155.763 84.8291 155.828 84.6536C155.99 84.1685 155.422 83.762 154.941 83.5542C153.953 83.1246 153.98 83.277 152.978 82.8428C141.134 77.6738 127.743 76.0894 115.016 78.3621C111.871 78.921 108.753 79.7109 105.556 79.8541C103.14 79.965 100.983 80.1913 98.8487 81.3092C98.0912 81.6972 97.3567 82.1499 96.6499 82.6395C92.8252 85.2864 89.818 89.2636 89.6886 93.8414C89.5916 96.9964 90.8435 100.022 92.1785 102.886C92.6496 103.884 93.13 104.877 93.6243 105.861C95.5321 109.612 97.7447 113.219 100.53 116.305C102.05 116.351 103.597 116.402 105.149 116.448C105.662 116.462 106.18 116.476 106.711 116.485C107.344 116.508 107.972 116.522 108.614 116.536C108.928 116.541 109.233 116.555 109.556 116.559C111.155 116.601 112.767 116.638 114.379 116.665C114.619 116.67 114.845 116.679 115.081 116.679C117.132 116.721 119.188 116.753 121.243 116.786C131.364 116.929 141.462 116.97 150.608 117.016C147.107 114.379 143.712 111.603 140.427 108.692C138.284 106.794 136.427 104.688 135.295 102.055C136.995 102.156 138.704 102.262 140.413 102.262H140.418C142.866 102.267 145.31 102.064 147.643 101.375C149.015 100.969 150.349 100.359 151.56 99.5693C153.86 98.0681 155.685 95.9108 156.322 93.2686C156.659 91.8551 156.636 90.3122 156.013 88.9957C155.297 87.476 154.47 86.8246 153.107 85.8454" fill="#696C80"/>
<path d="M73.4379 67.4097C73.1654 67.2018 72.879 67.017 72.588 66.8369C72.0198 66.4858 71.4239 66.1717 70.7957 65.9084C72.4171 65.6359 74.0107 65.0122 74.8884 64.0699C75.2164 63.7096 75.0177 62.9243 74.4403 62.9982C73.2208 63.1507 72.0752 63.7327 70.8788 64.0191C69.8302 64.2685 68.7678 64.2732 67.7146 64.3933C67.7562 64.4441 67.8116 64.481 67.8532 64.5318C68.5322 65.1832 69.239 66.0654 68.9711 66.9708C68.9295 67.114 68.8648 67.248 68.7817 67.3727C69.4561 67.5575 70.149 67.7284 70.7264 68.0009C71.0682 68.158 71.4054 68.352 71.7334 68.5368C73.0453 69.2897 74.214 70.2598 75.0455 71.5486C76.0709 73.1238 76.5052 74.99 76.1818 76.8469C75.84 78.7917 74.6944 80.1636 73.4056 81.5725C73.0499 81.9605 73.3917 82.7504 73.9692 82.5379C77.8124 81.1337 78.5377 75.632 77.2304 72.2599C76.4774 70.3106 75.087 68.6615 73.4333 67.4097" fill="#696C80"/>
<path d="M47.9485 82.9537C46.1147 83.3971 44.6319 84.4411 43.2876 85.7576C42.0681 86.9632 40.881 88.3536 40.844 90.1552C40.8394 90.6448 41.3429 91.0652 41.8233 90.9035C43.3246 90.4139 44.3547 89.2867 45.5003 88.2705C46.7337 87.1757 48.0363 86.2149 49.1449 84.9908C49.9533 84.09 49.1634 82.658 47.9532 82.9537" fill="#696C80"/>
<path d="M46.6598 59.7093C47.0062 60.2405 47.6852 60.4576 48.258 60.1296C48.7708 59.834 49.0433 59.0487 48.6784 58.5267C47.9254 57.4735 47.0616 56.6513 45.9946 55.9353C45.0661 55.3163 44.0221 56.7067 44.8074 57.4643C45.4957 58.1341 46.1239 58.9009 46.6551 59.7093" fill="#696C80"/>
<path d="M64.2917 76.579C63.7651 78.1773 63.3448 79.831 62.9937 81.4986C62.4117 84.2332 62.0006 87.0233 61.5386 89.7256C60.7949 94.0169 60.1344 98.3637 59.8618 102.706C59.8341 103.186 60.5963 103.293 60.6979 102.821C61.6541 98.4607 62.3794 94.04 63.1693 89.6424C63.5758 87.3743 64.0885 85.1016 64.5366 82.8243C64.9477 80.8057 65.3126 78.7824 65.5297 76.7453C65.6036 76.0108 64.5089 75.9415 64.2917 76.579Z" fill="#696C80"/>
<path d="M67.8947 78.0156C67.5252 80.025 67.3958 82.076 67.3266 84.1408C67.2757 85.8361 67.2619 87.5268 67.2157 89.199C67.1233 92.8436 66.7538 96.7885 67.4697 100.387C67.5298 100.724 68.0887 100.733 68.1488 100.387C68.8278 96.8532 68.5183 93.0469 68.5691 89.4623C68.5876 87.6885 68.68 85.9008 68.7308 84.1085C68.7816 82.1037 68.7955 80.0989 68.6061 78.1126C68.5738 77.7385 67.9733 77.5814 67.8901 78.0156" fill="#696C80"/>
<path d="M71.1237 77.7939C70.9574 77.2396 70.186 77.4844 70.2738 78.0249C70.5371 79.6509 70.8604 81.2815 71.1884 82.9075C71.715 85.4666 72.334 88.0118 73.0454 90.5109C73.2024 91.079 74.0016 90.8296 73.9046 90.2707C73.4565 87.4621 72.8791 84.6536 72.1954 81.8727C71.8674 80.5054 71.5071 79.1381 71.1237 77.7893" fill="#696C80"/>
<path d="M63.0953 55.7089C63.474 52.4708 63.377 49.1726 63.5711 45.916C63.5988 45.4494 63.6311 44.9783 63.6634 44.5117C63.8575 41.7309 64.1023 38.9501 64.1669 36.16C64.1762 35.7073 63.4694 35.6011 63.3678 36.0538C62.9705 37.883 62.7257 39.74 62.5456 41.6062C62.4486 42.5808 62.3746 43.5509 62.3146 44.5302C62.3146 44.5533 62.31 44.581 62.31 44.6087C62.2915 44.9598 62.2684 45.3109 62.2499 45.6619C62.0744 48.9786 61.8203 52.4108 62.2638 55.7089C62.3331 56.2402 63.0352 56.254 63.0999 55.7089" fill="#696C80"/>
<path d="M68.1211 45.4448C68.1672 45.2 68.2227 44.9598 68.2643 44.715C68.4629 43.768 68.6523 42.8164 68.8555 41.8741C69.8718 37.361 71.0127 32.8664 72.1168 28.3811C72.2738 27.7205 71.3269 27.4665 71.1005 28.0993C69.5715 32.5754 68.3613 37.0931 67.3081 41.7078C67.1094 42.5901 66.9016 43.477 66.7122 44.3685C65.913 47.967 65.1924 51.6532 64.9892 55.2978C64.9568 55.8614 65.8253 55.9676 65.9685 55.4318C66.5643 53.2099 67.0355 50.9464 67.479 48.6783C67.6961 47.5974 67.904 46.5257 68.1164 45.4494" fill="#696C80"/>
<path d="M67.9271 54.9237C67.8301 55.5196 68.6569 55.7736 68.8278 55.1777C69.2436 53.8474 69.6686 52.517 70.1074 51.1913C71.2345 47.7822 72.4725 44.4147 73.8629 41.1211C74.043 40.6823 73.3363 40.4144 73.1007 40.8024C71.3592 43.7634 69.9919 46.8722 69.0311 50.1288C68.5645 51.6948 68.1904 53.2884 67.9225 54.9237" fill="#696C80"/>
<path d="M244.999 51.0758C245.817 50.2027 247.355 48.6506 249.268 46.8999C244.27 47.5928 239.355 48.6737 234.578 50.4014C229.931 52.0874 225.52 54.3832 221.455 57.1917C221.298 57.5798 221.15 57.977 221.025 58.3881C220.12 61.4923 220.633 64.8275 221.469 67.9501C221.584 68.3613 221.695 68.777 221.829 69.1881C222.212 70.4769 222.656 71.7472 223.141 72.999C227.081 71.179 231.289 69.9642 235.627 69.2066C236.98 62.1344 240.034 56.3972 244.999 51.0758Z" fill="#3A3D4D"/>
<path d="M101.745 41.0103C101.209 41.1858 100.627 41.3937 100.313 41.8649C99.9481 42.4146 100.04 43.1444 100.156 43.7957C100.673 46.6505 101.32 49.6068 102.604 52.1659C111.686 50.2443 124.569 47.445 137.66 44.3454C136.113 43.4816 134.579 42.604 133.073 41.6893C130.874 40.3636 128.87 38.8346 127.331 36.8159C126.5 36.6497 125.775 36.5757 125.243 36.585C117.367 36.7282 109.21 38.5944 101.745 41.0057" fill="#3A3D4D"/>
<path d="M135.291 102.064C136.991 102.165 138.7 102.272 140.409 102.272C139.042 101.75 137.656 101.403 136.233 101.459C127.66 101.787 119.072 101.824 110.494 101.57C111.016 103.754 112.97 105.307 114.998 106.295C117.021 107.284 119.234 107.916 121.068 109.21C121.442 109.473 121.802 109.769 121.973 110.185C122.389 111.215 121.47 112.236 121.035 113.252C120.555 114.388 120.698 115.668 121.239 116.799C131.36 116.943 141.457 116.984 150.613 117.03C147.102 114.393 143.707 111.617 140.427 108.702C138.284 106.803 136.427 104.701 135.295 102.068" fill="#3A3D4D"/>
<path d="M66.3243 13.2805C65.0863 6.56404 54.2863 11.8716 54.2863 11.8716C54.2863 11.8716 47.9301 -4.7579 45.6713 7.5572C43.4124 19.8723 49.3436 23.9927 49.3436 23.9927C49.3436 23.9927 67.5715 19.997 66.3243 13.2851V13.2805Z" fill="#828699"/>
<path d="M46.9969 27.5727C46.207 27.411 45.4818 27.8868 45.3155 28.6444C45.0291 29.9424 44.1052 33.0512 42.7425 35.2315C42.6317 34.3492 42.433 33.5178 42.1697 32.7879C41.5831 31.1711 40.3543 30.2796 38.8854 30.4136C36.9776 30.5799 35.116 32.5154 34.7373 34.7234C34.3585 36.913 35.4856 38.8392 37.7491 39.8786C38.2757 40.1234 38.8115 40.2758 39.3427 40.3312C39.1533 40.7701 38.9224 41.1904 38.6498 41.5785C37.2548 43.5509 34.9544 44.5163 31.7624 44.5256C29.6052 44.5117 27.6651 43.9343 26.0529 43.1536C25.6557 41.3152 24.3808 39.606 22.3991 38.3449C21.7154 37.9107 20.1125 36.8899 18.9438 37.8091C18.7129 37.9893 18.0015 38.6729 18.4403 39.9432C18.9022 41.2782 20.6853 43.3015 23.3229 44.8951C23.3229 44.909 23.3183 44.9228 23.3137 44.9413C23.0689 46.3364 21.9187 47.4589 20.3897 47.7961C19.415 48.0178 18.0338 47.3341 16.8189 46.4888C16.5233 45.9668 16.1076 45.431 15.5486 44.909C14.2645 43.6987 13.2482 42.7471 12.1534 43.5232C11.6083 43.9112 11.419 44.7335 11.6915 45.3478C11.8947 45.8051 13.0265 47.1216 14.5786 48.3319C14.694 48.6553 14.7402 48.9925 14.7125 49.3343C14.5555 51.4361 11.9548 53.6718 10.9663 54.3509C10.3242 54.7943 10.1625 55.672 10.606 56.3141C10.8785 56.7113 11.3219 56.9238 11.77 56.9238C12.0426 56.9238 12.3243 56.8453 12.5692 56.6744C13.0219 56.3603 16.8651 53.6349 17.4703 50.0688C18.6343 50.563 19.8631 50.8032 21.0133 50.5492C23.3922 50.018 25.2446 48.3458 25.9236 46.1793C27.6743 46.8768 29.6422 47.3295 31.7532 47.3434C36.9361 47.4265 39.6153 45.1076 40.9595 43.2045C41.754 42.0773 42.2714 40.8163 42.5578 39.5275C46.244 37.1116 47.8931 30.081 48.0778 29.2495C48.2441 28.4873 47.7637 27.7344 47.0062 27.5681L46.9969 27.5727ZM38.9224 37.3148C37.8183 36.8113 37.361 36.1184 37.5181 35.2084C37.7029 34.146 38.6221 33.2729 39.1302 33.2267H39.1395C39.3104 33.2267 39.4674 33.624 39.5136 33.7441C39.8924 34.7927 40.0957 36.1461 39.9987 37.5412C39.6337 37.5597 39.3104 37.4904 38.927 37.3102L38.9224 37.3148Z" fill="#828699"/>
<path d="M329.117 26.3855C328.373 26.6165 327.953 27.4018 328.179 28.1501C328.276 28.4596 337.515 59.3675 321.892 66.4489C321.181 66.7722 320.867 67.6083 321.19 68.3151C321.426 68.837 321.939 69.1419 322.474 69.1419C322.668 69.1419 322.867 69.1003 323.056 69.0172C340.919 60.9242 331.297 28.6906 330.882 27.3233C330.651 26.5795 329.875 26.1499 329.117 26.3855Z" fill="#828699"/>
<path d="M134.81 3.07647H134.773C134.011 3.07647 133.383 3.68622 133.364 4.45303C133.346 5.22907 133.96 5.88039 134.741 5.89887C135.277 5.91273 147.888 6.3839 149.209 20.4959C149.278 21.2304 149.892 21.7755 150.613 21.7755C150.659 21.7755 150.701 21.7755 150.747 21.7708C151.523 21.6969 152.091 21.0087 152.022 20.2326C150.47 3.65388 134.972 3.08109 134.815 3.07647H134.81Z" fill="#828699"/>
</g>
<defs>
<clipPath id="clip0_13_4279">
<rect width="338" height="137.147" fill="white"/>
</clipPath>
</defs>
</svg>
